<svg width="355" height="127" viewBox="0 0 355 127" fill="none" xmlns="http://www.w3.org/2000/svg">
<path d="M27.2952 20.6981C20.4629 23.558 12.9519 31.6376 10.5797 41.7793C7.57542 54.6292 20.0775 60.063 21.1029 58.2814C22.3098 56.1879 18.8627 55.4799 18.1531 48.8128C17.236 40.2016 21.2394 30.5796 26.2777 26.3578C27.2142 25.5734 27.1696 26.6651 27.1696 28.6845C27.1696 32.2955 26.9701 64.7125 26.9701 71.4779C26.9701 80.6324 26.592 83.5233 25.9129 86.3798C25.2248 89.2745 24.1187 91.2305 24.9569 91.984C25.8934 92.8267 29.8918 90.8221 32.2066 87.5914C34.9823 83.7166 35.954 79.0633 36.1284 74.0099C36.3391 67.9181 36.3302 58.2518 36.3391 52.7382C36.3476 47.6813 36.4243 32.8739 36.2505 23.9722C36.2079 21.7888 30.1525 19.4981 27.2949 20.6954L27.2952 20.6981ZM269.911 63.5404C269.691 68.2996 268.637 72.0196 267.33 74.6435C264.799 79.7232 259.546 81.3005 257.316 73.9982C256.101 70.0178 256.044 63.37 256.918 57.8154C257.807 52.1568 260.291 47.8832 264.403 48.2686C268.459 48.6496 270.358 53.8761 269.911 63.5402V63.5404ZM201.532 93.0677C201.477 100.975 200.232 107.909 197.563 109.923C193.778 112.778 188.69 110.636 189.744 104.866C190.676 99.7596 195.085 94.5448 201.543 88.1733C201.543 88.1733 201.556 89.6263 201.532 93.0677H201.532ZM200.498 63.4944C200.267 67.8291 199.143 72.1836 197.917 74.6441C195.386 79.7237 190.096 81.3117 187.903 73.9988C186.404 69.0023 186.763 62.5356 187.505 58.4609C188.467 53.1743 190.8 48.2698 194.99 48.2698C199.064 48.2698 201.072 52.7389 200.498 63.4947V63.4944ZM160.886 63.4281C160.638 68.0189 159.742 71.8566 158.305 74.6441C155.704 79.6888 150.56 81.2887 148.291 73.9988C146.656 68.7423 147.212 61.5748 147.893 57.703C148.902 51.9573 151.431 47.8838 155.378 48.2698C159.432 48.6659 161.403 53.8767 160.886 63.4284V63.4281ZM342.42 68.7904C341.428 68.7904 340.976 69.812 340.602 71.5317C339.304 77.5111 337.94 78.8612 336.181 78.8612C334.215 78.8612 332.449 75.9005 331.995 69.9736C331.638 65.3132 331.696 56.7333 332.152 48.1985C332.245 46.4449 331.762 44.7099 327.058 43.0012C325.034 42.2663 322.092 41.1841 320.628 44.72C316.489 54.7094 314.87 62.6402 314.489 65.8619C314.469 66.0287 314.264 66.0627 314.228 65.6731C313.986 63.0927 313.443 58.4037 313.376 48.5519C313.362 46.6298 312.955 44.9936 310.834 43.6541C309.457 42.7849 305.277 41.2476 303.772 43.0765C302.467 44.5722 300.957 48.5974 299.388 53.3688C298.112 57.2468 297.224 59.8702 297.224 59.8702C297.224 59.8702 297.241 49.4065 297.256 45.4375C297.263 43.9401 296.236 43.4412 295.926 43.3507C294.532 42.9461 291.786 42.2702 290.62 42.2702C289.182 42.2702 288.829 43.0743 288.829 44.2458C288.829 44.3991 288.602 58.0222 288.602 67.548C288.602 67.9618 288.602 68.4133 288.606 68.8928C287.811 73.271 285.231 79.2143 282.425 79.2143C279.615 79.2143 278.29 76.7296 278.29 65.3733C278.29 58.7483 278.489 55.8676 278.587 51.076C278.643 48.3161 278.753 46.1968 278.747 45.7158C278.726 44.2409 276.176 43.4976 274.989 43.2228C273.797 42.9458 272.761 42.8385 271.952 42.8845C270.807 42.9492 269.996 43.7004 269.996 44.7337C269.996 45.2877 270.003 46.3412 270.003 46.3412C268.528 44.0235 266.156 42.4103 264.577 41.9429C260.326 40.6804 255.89 41.799 252.544 46.4811C249.885 50.2012 248.282 54.4146 247.651 60.4682C247.19 64.8938 247.34 69.3817 248.16 73.1771C247.17 77.4597 245.331 79.2143 243.317 79.2143C240.393 79.2143 238.274 74.4426 238.52 66.1902C238.682 60.7623 239.769 56.9531 240.956 51.4424C241.462 49.0932 241.051 47.8633 240.019 46.6845C239.073 45.6034 237.057 45.0511 234.159 45.7304C232.095 46.2148 229.143 46.7356 226.443 47.1357C226.443 47.1357 226.606 46.4856 226.739 45.3394C227.442 39.3285 220.91 39.8162 218.826 41.7361C217.582 42.8823 216.735 44.2342 216.414 46.6648C215.904 50.522 219.05 52.3414 219.05 52.3414C218.018 57.0661 215.488 63.2382 212.876 67.7005C211.477 70.0914 210.407 71.863 209.025 73.7462C209.02 73.045 209.016 72.3438 209.014 71.6458C208.982 61.7126 209.114 53.8947 209.173 51.077C209.229 48.3171 209.34 46.2539 209.334 45.773C209.318 44.6942 208.688 44.2868 207.378 43.771C206.219 43.3148 204.85 42.999 203.429 42.8889C201.635 42.749 200.555 43.7002 200.583 44.8251C200.588 45.0375 200.588 46.3416 200.588 46.3416C199.113 44.0239 196.741 42.4108 195.163 41.9433C190.912 40.6813 186.476 41.8 183.13 46.4815C180.471 50.2016 178.73 55.4219 178.236 60.4225C177.777 65.0831 177.862 69.0438 178.488 72.3802C177.812 75.7211 175.869 79.2147 173.671 79.2147C170.862 79.2147 169.263 76.73 169.263 65.3737C169.263 58.7487 169.462 55.868 169.56 51.077C169.617 48.3171 169.726 46.1972 169.72 45.7168C169.7 44.2419 167.149 43.4985 165.963 43.2232C164.721 42.9361 163.649 42.8305 162.826 42.8911C161.74 42.972 160.976 43.9447 160.976 44.67V46.3416C159.501 44.0239 157.129 42.4108 155.551 41.9433C151.299 40.6813 146.888 41.818 143.518 46.4815C141.32 49.5223 139.54 52.8935 138.624 60.3562C138.36 62.5128 138.243 64.5323 138.258 66.4199C137.381 71.7803 133.51 77.9584 130.343 77.9584C128.49 77.9584 126.726 74.3642 126.726 66.7042C126.726 56.5007 127.357 41.9731 127.464 40.5729C127.464 40.5729 131.465 40.5049 132.24 40.4959C134.236 40.474 136.043 40.5212 138.701 40.3852C140.035 40.3172 141.319 35.5324 139.943 34.9402C139.319 34.6721 134.911 34.4373 133.164 34.4002C131.695 34.3669 127.604 34.0642 127.604 34.0642C127.604 34.0642 127.971 24.4214 128.057 23.4028C128.129 22.5538 127.031 22.1167 126.401 21.8514C124.869 21.2036 123.499 20.8935 121.874 20.5586C119.63 20.0956 118.612 20.5485 118.413 22.4425C118.114 25.3171 117.959 33.7366 117.959 33.7366C116.312 33.7366 110.687 33.4147 109.039 33.4147C107.509 33.4147 105.857 39.997 107.973 40.0779C110.407 40.1723 114.65 40.2537 117.463 40.3386C117.463 40.3386 117.337 55.1056 117.337 59.6646C117.337 60.1496 117.342 60.6167 117.342 61.0699C115.794 69.1383 110.342 73.4967 110.342 73.4967C111.513 68.159 109.121 64.1506 104.813 60.7575C103.226 59.5072 100.092 57.14 96.5859 54.5461C96.5859 54.5461 98.6165 52.5447 100.417 48.5184C101.693 45.6663 101.748 42.4024 98.6165 41.6827C93.4417 40.4926 89.1749 44.2931 87.9023 48.3504C86.9162 51.4934 87.4421 53.8257 89.3738 56.2485C89.5149 56.4255 89.6677 56.6064 89.8256 56.7885C88.6574 59.04 87.0527 62.0713 85.6936 64.422C81.9212 70.9487 79.0714 76.1111 76.9178 76.1111C75.1962 76.1111 75.2193 70.8699 75.2193 65.9627C75.2193 61.7322 75.5317 55.372 75.7811 48.7869C75.8637 46.6091 74.7748 45.3685 72.9493 44.2448C71.8402 43.5621 69.473 42.2198 68.1021 42.2198C66.05 42.2198 60.1298 42.4991 54.5358 58.6803C53.8308 60.7198 52.4459 64.436 52.4459 64.436L52.5651 44.9775C52.5651 44.5212 52.3221 44.0802 51.7657 43.7784C50.8231 43.2666 48.3054 42.2198 46.0667 42.2198C45.0001 42.2198 44.4678 42.716 44.4678 43.7048L44.2725 74.148C44.2725 76.461 44.3328 79.1595 44.5615 80.3397C44.7894 81.5214 45.1585 82.4827 45.6157 83.0547C46.0722 83.6255 46.6003 84.061 47.4709 84.2407C48.2813 84.4076 52.7185 84.9774 52.9491 83.2817C53.2255 81.2495 53.236 79.0514 55.566 70.8537C59.1933 58.0909 63.9227 51.8637 66.146 49.6522C66.5347 49.2657 66.9786 49.2426 66.9572 49.8752C66.8623 52.6734 66.5285 59.6652 66.3038 65.6053C65.7016 81.5017 68.5934 84.4481 72.726 84.4481C75.8876 84.4481 80.3443 81.3066 85.1219 73.3546C88.1004 68.399 90.9923 63.5399 93.0701 60.0378C94.518 61.3781 96.1429 62.8208 97.7667 64.3619C101.54 67.9434 102.779 71.3465 101.957 74.575C101.328 77.0431 98.9607 79.5866 94.7467 77.1144C93.5184 76.3931 92.9942 75.8359 91.7592 75.0228C91.0957 74.5859 90.0826 74.4554 89.4752 74.913C87.8975 76.1026 86.9952 77.6156 86.4799 79.4889C85.9788 81.3117 87.8042 82.2752 89.6966 83.118C91.326 83.8434 94.8281 84.5007 97.0616 84.5756C105.764 84.8666 112.735 80.3739 117.588 68.7848C118.456 78.7934 122.153 84.457 128.577 84.457C132.871 84.457 137.177 78.9062 139.059 73.4455C139.6 75.6715 140.4 77.6071 141.433 79.244C146.383 87.086 155.985 85.3981 160.808 78.739C162.299 76.6814 162.526 75.942 162.526 75.942C163.229 82.2298 168.293 84.4267 171.192 84.4267C174.439 84.4267 177.792 82.8917 180.141 77.6017C180.417 78.1758 180.717 78.7241 181.046 79.2438C185.995 87.0858 195.597 85.398 200.42 78.7388C200.647 78.4265 200.845 78.1431 201.017 77.8888L201.159 82.0189C201.159 82.0189 198.407 84.543 196.718 86.0914C189.285 92.9113 183.632 98.0856 183.217 104.111C182.683 111.794 188.914 114.649 193.628 115.024C198.634 115.421 202.921 112.655 205.556 108.785C207.874 105.379 209.391 98.0468 209.28 90.8054C209.236 87.9057 209.163 84.2187 209.105 80.2665C211.718 77.2324 214.662 73.3977 217.372 68.9089C220.326 64.0172 223.491 57.448 225.112 52.3355C225.112 52.3355 227.863 52.3591 230.798 52.167C231.737 52.1057 232.006 52.2973 231.833 52.9856C231.623 53.8171 228.124 67.3121 231.318 76.302C233.503 82.4561 238.43 84.4361 241.351 84.4361C244.771 84.4361 248.042 81.8537 249.795 78.019C250.006 78.4466 250.227 78.8602 250.468 79.2421C255.418 87.0841 264.986 85.3862 269.842 78.7372C270.939 77.237 271.561 75.9401 271.561 75.9401C272.603 82.4477 277.664 84.458 280.562 84.458C283.582 84.458 286.447 83.2202 288.772 77.719C288.87 80.1412 289.022 82.1217 289.264 82.7462C289.411 83.128 290.269 83.6074 290.893 83.8389C293.656 84.8632 296.473 84.3789 297.515 84.1682C298.237 84.022 298.8 83.4428 298.877 81.947C299.079 78.0196 298.955 71.421 300.146 66.517C302.144 58.2868 304.009 55.0943 304.893 53.5138C305.388 52.6282 305.946 52.4821 305.967 53.4194C306.008 55.3156 306.103 60.8843 306.877 68.3661C307.445 73.8688 308.205 77.1212 308.789 78.1505C310.455 81.0941 312.512 81.2335 314.188 81.2335C315.254 81.2335 317.483 80.939 317.283 79.0658C317.186 78.1527 317.356 72.5099 319.327 64.4016C320.613 59.1066 322.759 54.3222 323.532 52.5731C323.818 51.9281 323.95 52.4366 323.946 52.5356C323.783 56.1822 323.417 68.1095 324.903 74.6328C326.916 83.4698 332.742 84.4587 334.772 84.4587C339.106 84.4587 342.65 81.1621 343.844 72.4881C344.131 70.4007 343.706 68.7889 342.43 68.7889" fill="#262626"/>
</svg>
